<svg xmlns="http://www.w3.org/2000/svg" width="520" height="1525" viewBox="0 0 520 1525">
  <style>
    @keyframes fade-in { from { opacity: 0; transform: translateY(5px); } to { opacity: 1; transform: translateY(0); } }
    @keyframes bar-grow { from { width: 0; } }
    @keyframes donut-fill { from { stroke-dasharray: 0 1000; } }
    @keyframes sparkline-draw { to { stroke-dashoffset: 0; } }
    .row-anim { animation: fade-in 0.3s ease both; }
    .bar-anim { animation: bar-grow 0.6s ease both; }
  </style>
  <rect width="520" height="1525" rx="10" fill="#0d1117" stroke="#30363d" stroke-width="1.5"/>
  <text x="25" y="30" fill="#58a6ff" font-size="16" font-weight="bold" font-family="monospace">Daily Lines of Code</text>
  <text x="25" y="48" fill="#8b949e" font-size="11" font-family="monospace">@Rudra-Tiwari-codes | last 30 days | 316 commits</text>
  <circle cx="320" cy="48" r="4" fill="#ff6b6b"/><text x="328" y="51" fill="#8b949e" font-size="9" font-family="monospace">Beast Mode</text>
  <circle cx="365" cy="48" r="4" fill="#ffd93d"/><text x="373" y="51" fill="#8b949e" font-size="9" font-family="monospace">High</text>
  <circle cx="410" cy="48" r="4" fill="#6bcb77"/><text x="418" y="51" fill="#8b949e" font-size="9" font-family="monospace">Medium</text>
  <circle cx="455" cy="48" r="4" fill="#4d96ff"/><text x="463" y="51" fill="#8b949e" font-size="9" font-family="monospace">Low</text>
  <text x="25" y="68" fill="#c9d1d9" font-size="11" font-family="monospace">Streak: 5d (best: 7d)  Trend:  ▆  ▁▁ ▁  █▃ ▁  ▃ ▁</text>
  <g transform="translate(0, 80)">
    <text x="25" y="0" fill="#8b949e" font-size="11" font-family="monospace">Date</text>
    <text x="155" y="0" fill="#8b949e" font-size="11" font-family="monospace" text-anchor="end">Commits</text>
    <text x="215" y="0" fill="#8b949e" font-size="11" font-family="monospace" text-anchor="end">Added</text>
    <text x="275" y="0" fill="#8b949e" font-size="11" font-family="monospace" text-anchor="end">Deleted</text>
    <text x="290" y="0" fill="#8b949e" font-size="11" font-family="monospace">Chart</text>
    <line x1="25" y1="8" x2="495" y2="8" stroke="#30363d" stroke-width="0.5"/>
  </g>
      <g transform="translate(0, 108)" class="row-anim" style="animation-delay: 0.0s"><text x="25" y="18" fill="#c9d1d9" font-size="12" font-family="monospace">2026-03-21</text><text x="155" y="18" fill="#8b949e" font-size="12" font-family="monospace" text-anchor="end">2</text><text x="215" y="18" fill="#3fb950" font-size="12" font-family="monospace" text-anchor="end">+240</text><text x="275" y="18" fill="#f85149" font-size="12" font-family="monospace" text-anchor="end">-0</text><rect x="290" y="6" width="100" height="14" rx="3" fill="#21262d"/><rect x="290" y="6" width="2" height="14" rx="3" fill="#238636" class="bar-anim" style="animation-delay: 0.1s"/><circle cx="490" cy="121" r="4" fill="#4d96ff"/></g>    <g transform="translate(0, 136)" class="row-anim" style="animation-delay: 0.05s"><text x="25" y="18" fill="#c9d1d9" font-size="12" font-family="monospace">2026-03-22</text><text x="155" y="18" fill="#8b949e" font-size="12" font-family="monospace" text-anchor="end">43</text><text x="215" y="18" fill="#3fb950" font-size="12" font-family="monospace" text-anchor="end">+22128</text><text x="275" y="18" fill="#f85149" font-size="12" font-family="monospace" text-anchor="end">-1353</text><rect x="290" y="6" width="100" height="14" rx="3" fill="#21262d"/><rect x="290" y="6" width="79" height="14" rx="3" fill="#238636" class="bar-anim" style="animation-delay: 0.15000000000000002s"/><circle cx="490" cy="149" r="4" fill="#ff6b6b"/></g>    <g transform="translate(0, 164)" class="row-anim" style="animation-delay: 0.1s"><text x="25" y="18" fill="#c9d1d9" font-size="12" font-family="monospace">2026-03-24</text><text x="155" y="18" fill="#8b949e" font-size="12" font-family="monospace" text-anchor="end">4</text><text x="215" y="18" fill="#3fb950" font-size="12" font-family="monospace" text-anchor="end">+1890</text><text x="275" y="18" fill="#f85149" font-size="12" font-family="monospace" text-anchor="end">-207</text><rect x="290" y="6" width="100" height="14" rx="3" fill="#21262d"/><rect x="290" y="6" width="6" height="14" rx="3" fill="#238636" class="bar-anim" style="animation-delay: 0.2s"/><circle cx="490" cy="177" r="4" fill="#6bcb77"/></g>    <g transform="translate(0, 192)" class="row-anim" style="animation-delay: 0.15000000000000002s"><text x="25" y="18" fill="#c9d1d9" font-size="12" font-family="monospace">2026-03-25</text><text x="155" y="18" fill="#8b949e" font-size="12" font-family="monospace" text-anchor="end">4</text><text x="215" y="18" fill="#3fb950" font-size="12" font-family="monospace" text-anchor="end">+595</text><text x="275" y="18" fill="#f85149" font-size="12" font-family="monospace" text-anchor="end">-67</text><rect x="290" y="6" width="100" height="14" rx="3" fill="#21262d"/><rect x="290" y="6" width="2" height="14" rx="3" fill="#238636" class="bar-anim" style="animation-delay: 0.25s"/><circle cx="490" cy="205" r="4" fill="#4d96ff"/></g>    <g transform="translate(0, 220)" class="row-anim" style="animation-delay: 0.2s"><text x="25" y="18" fill="#c9d1d9" font-size="12" font-family="monospace">2026-03-26</text><text x="155" y="18" fill="#8b949e" font-size="12" font-family="monospace" text-anchor="end">3</text><text x="215" y="18" fill="#3fb950" font-size="12" font-family="monospace" text-anchor="end">+5942</text><text x="275" y="18" fill="#f85149" font-size="12" font-family="monospace" text-anchor="end">-998</text><rect x="290" y="6" width="100" height="14" rx="3" fill="#21262d"/><rect x="290" y="6" width="21" height="14" rx="3" fill="#238636" class="bar-anim" style="animation-delay: 0.30000000000000004s"/><circle cx="490" cy="233" r="4" fill="#ffd93d"/></g>    <g transform="translate(0, 248)" class="row-anim" style="animation-delay: 0.25s"><text x="25" y="18" fill="#c9d1d9" font-size="12" font-family="monospace">2026-03-27</text><text x="155" y="18" fill="#8b949e" font-size="12" font-family="monospace" text-anchor="end">5</text><text x="215" y="18" fill="#3fb950" font-size="12" font-family="monospace" text-anchor="end">+5251</text><text x="275" y="18" fill="#f85149" font-size="12" font-family="monospace" text-anchor="end">-916</text><rect x="290" y="6" width="100" height="14" rx="3" fill="#21262d"/><rect x="290" y="6" width="18" height="14" rx="3" fill="#238636" class="bar-anim" style="animation-delay: 0.35s"/><circle cx="490" cy="261" r="4" fill="#ffd93d"/></g>    <g transform="translate(0, 276)" class="row-anim" style="animation-delay: 0.30000000000000004s"><text x="25" y="18" fill="#c9d1d9" font-size="12" font-family="monospace">2026-03-28</text><text x="155" y="18" fill="#8b949e" font-size="12" font-family="monospace" text-anchor="end">18</text><text x="215" y="18" fill="#3fb950" font-size="12" font-family="monospace" text-anchor="end">+1624</text><text x="275" y="18" fill="#f85149" font-size="12" font-family="monospace" text-anchor="end">-185</text><rect x="290" y="6" width="100" height="14" rx="3" fill="#21262d"/><rect x="290" y="6" width="5" height="14" rx="3" fill="#238636" class="bar-anim" style="animation-delay: 0.4s"/><circle cx="490" cy="289" r="4" fill="#4d96ff"/></g>    <g transform="translate(0, 304)" class="row-anim" style="animation-delay: 0.35000000000000003s"><text x="25" y="18" fill="#c9d1d9" font-size="12" font-family="monospace">2026-03-29</text><text x="155" y="18" fill="#8b949e" font-size="12" font-family="monospace" text-anchor="end">11</text><text x="215" y="18" fill="#3fb950" font-size="12" font-family="monospace" text-anchor="end">+6112</text><text x="275" y="18" fill="#f85149" font-size="12" font-family="monospace" text-anchor="end">-219</text><rect x="290" y="6" width="100" height="14" rx="3" fill="#21262d"/><rect x="290" y="6" width="22" height="14" rx="3" fill="#238636" class="bar-anim" style="animation-delay: 0.45000000000000007s"/><circle cx="490" cy="317" r="4" fill="#ffd93d"/></g>    <g transform="translate(0, 332)" class="row-anim" style="animation-delay: 0.4s"><text x="25" y="18" fill="#c9d1d9" font-size="12" font-family="monospace">2026-03-30</text><text x="155" y="18" fill="#8b949e" font-size="12" font-family="monospace" text-anchor="end">18</text><text x="215" y="18" fill="#3fb950" font-size="12" font-family="monospace" text-anchor="end">+4824</text><text x="275" y="18" fill="#f85149" font-size="12" font-family="monospace" text-anchor="end">-1424</text><rect x="290" y="6" width="100" height="14" rx="3" fill="#21262d"/><rect x="290" y="6" width="17" height="14" rx="3" fill="#238636" class="bar-anim" style="animation-delay: 0.5s"/><circle cx="490" cy="345" r="4" fill="#6bcb77"/></g>    <g transform="translate(0, 360)" class="row-anim" style="animation-delay: 0.45s"><text x="25" y="18" fill="#c9d1d9" font-size="12" font-family="monospace">2026-04-03</text><text x="155" y="18" fill="#8b949e" font-size="12" font-family="monospace" text-anchor="end">4</text><text x="215" y="18" fill="#3fb950" font-size="12" font-family="monospace" text-anchor="end">+2185</text><text x="275" y="18" fill="#f85149" font-size="12" font-family="monospace" text-anchor="end">-320</text><rect x="290" y="6" width="100" height="14" rx="3" fill="#21262d"/><rect x="290" y="6" width="7" height="14" rx="3" fill="#238636" class="bar-anim" style="animation-delay: 0.55s"/><circle cx="490" cy="373" r="4" fill="#6bcb77"/></g>    <g transform="translate(0, 388)" class="row-anim" style="animation-delay: 0.5s"><text x="25" y="18" fill="#c9d1d9" font-size="12" font-family="monospace">2026-04-04</text><text x="155" y="18" fill="#8b949e" font-size="12" font-family="monospace" text-anchor="end">76</text><text x="215" y="18" fill="#3fb950" font-size="12" font-family="monospace" text-anchor="end">+27671</text><text x="275" y="18" fill="#f85149" font-size="12" font-family="monospace" text-anchor="end">-637</text><rect x="290" y="6" width="100" height="14" rx="3" fill="#21262d"/><rect x="290" y="6" width="100" height="14" rx="3" fill="#238636" class="bar-anim" style="animation-delay: 0.6s"/><circle cx="490" cy="401" r="4" fill="#ff6b6b"/></g>    <g transform="translate(0, 416)" class="row-anim" style="animation-delay: 0.55s"><text x="25" y="18" fill="#c9d1d9" font-size="12" font-family="monospace">2026-04-05</text><text x="155" y="18" fill="#8b949e" font-size="12" font-family="monospace" text-anchor="end">26</text><text x="215" y="18" fill="#3fb950" font-size="12" font-family="monospace" text-anchor="end">+14119</text><text x="275" y="18" fill="#f85149" font-size="12" font-family="monospace" text-anchor="end">-1587</text><rect x="290" y="6" width="100" height="14" rx="3" fill="#21262d"/><rect x="290" y="6" width="51" height="14" rx="3" fill="#238636" class="bar-anim" style="animation-delay: 0.65s"/><circle cx="490" cy="429" r="4" fill="#ff6b6b"/></g>    <g transform="translate(0, 444)" class="row-anim" style="animation-delay: 0.6000000000000001s"><text x="25" y="18" fill="#c9d1d9" font-size="12" font-family="monospace">2026-04-08</text><text x="155" y="18" fill="#8b949e" font-size="12" font-family="monospace" text-anchor="end">3</text><text x="215" y="18" fill="#3fb950" font-size="12" font-family="monospace" text-anchor="end">+124</text><text x="275" y="18" fill="#f85149" font-size="12" font-family="monospace" text-anchor="end">-8</text><rect x="290" y="6" width="100" height="14" rx="3" fill="#21262d"/><rect x="290" y="6" width="2" height="14" rx="3" fill="#238636" class="bar-anim" style="animation-delay: 0.7000000000000001s"/><circle cx="490" cy="457" r="4" fill="#4d96ff"/></g>    <g transform="translate(0, 472)" class="row-anim" style="animation-delay: 0.65s"><text x="25" y="18" fill="#c9d1d9" font-size="12" font-family="monospace">2026-04-09</text><text x="155" y="18" fill="#8b949e" font-size="12" font-family="monospace" text-anchor="end">15</text><text x="215" y="18" fill="#3fb950" font-size="12" font-family="monospace" text-anchor="end">+4527</text><text x="275" y="18" fill="#f85149" font-size="12" font-family="monospace" text-anchor="end">-740</text><rect x="290" y="6" width="100" height="14" rx="3" fill="#21262d"/><rect x="290" y="6" width="16" height="14" rx="3" fill="#238636" class="bar-anim" style="animation-delay: 0.75s"/><circle cx="490" cy="485" r="4" fill="#ffd93d"/></g>    <g transform="translate(0, 500)" class="row-anim" style="animation-delay: 0.7000000000000001s"><text x="25" y="18" fill="#c9d1d9" font-size="12" font-family="monospace">2026-04-11</text><text x="155" y="18" fill="#8b949e" font-size="12" font-family="monospace" text-anchor="end">26</text><text x="215" y="18" fill="#3fb950" font-size="12" font-family="monospace" text-anchor="end">+4005</text><text x="275" y="18" fill="#f85149" font-size="12" font-family="monospace" text-anchor="end">-673</text><rect x="290" y="6" width="100" height="14" rx="3" fill="#21262d"/><rect x="290" y="6" width="14" height="14" rx="3" fill="#238636" class="bar-anim" style="animation-delay: 0.8s"/><circle cx="490" cy="513" r="4" fill="#6bcb77"/></g>    <g transform="translate(0, 528)" class="row-anim" style="animation-delay: 0.75s"><text x="25" y="18" fill="#c9d1d9" font-size="12" font-family="monospace">2026-04-12</text><text x="155" y="18" fill="#8b949e" font-size="12" font-family="monospace" text-anchor="end">4</text><text x="215" y="18" fill="#3fb950" font-size="12" font-family="monospace" text-anchor="end">+259</text><text x="275" y="18" fill="#f85149" font-size="12" font-family="monospace" text-anchor="end">-14</text><rect x="290" y="6" width="100" height="14" rx="3" fill="#21262d"/><rect x="290" y="6" width="2" height="14" rx="3" fill="#238636" class="bar-anim" style="animation-delay: 0.85s"/><circle cx="490" cy="541" r="4" fill="#4d96ff"/></g>    <g transform="translate(0, 556)" class="row-anim" style="animation-delay: 0.8s"><text x="25" y="18" fill="#c9d1d9" font-size="12" font-family="monospace">2026-04-13</text><text x="155" y="18" fill="#8b949e" font-size="12" font-family="monospace" text-anchor="end">14</text><text x="215" y="18" fill="#3fb950" font-size="12" font-family="monospace" text-anchor="end">+14777</text><text x="275" y="18" fill="#f85149" font-size="12" font-family="monospace" text-anchor="end">-3178</text><rect x="290" y="6" width="100" height="14" rx="3" fill="#21262d"/><rect x="290" y="6" width="53" height="14" rx="3" fill="#238636" class="bar-anim" style="animation-delay: 0.9s"/><circle cx="490" cy="569" r="4" fill="#ffd93d"/></g>    <g transform="translate(0, 584)" class="row-anim" style="animation-delay: 0.8500000000000001s"><text x="25" y="18" fill="#c9d1d9" font-size="12" font-family="monospace">2026-04-14</text><text x="155" y="18" fill="#8b949e" font-size="12" font-family="monospace" text-anchor="end">19</text><text x="215" y="18" fill="#3fb950" font-size="12" font-family="monospace" text-anchor="end">+4296</text><text x="275" y="18" fill="#f85149" font-size="12" font-family="monospace" text-anchor="end">-2407</text><rect x="290" y="6" width="100" height="14" rx="3" fill="#21262d"/><rect x="290" y="6" width="15" height="14" rx="3" fill="#238636" class="bar-anim" style="animation-delay: 0.9500000000000001s"/><circle cx="490" cy="597" r="4" fill="#6bcb77"/></g>    <g transform="translate(0, 612)" class="row-anim" style="animation-delay: 0.9s"><text x="25" y="18" fill="#c9d1d9" font-size="12" font-family="monospace">2026-04-15</text><text x="155" y="18" fill="#8b949e" font-size="12" font-family="monospace" text-anchor="end">21</text><text x="215" y="18" fill="#3fb950" font-size="12" font-family="monospace" text-anchor="end">+12991</text><text x="275" y="18" fill="#f85149" font-size="12" font-family="monospace" text-anchor="end">-9337</text><rect x="290" y="6" width="100" height="14" rx="3" fill="#21262d"/><rect x="290" y="6" width="46" height="14" rx="3" fill="#238636" class="bar-anim" style="animation-delay: 1.0s"/><circle cx="490" cy="625" r="4" fill="#6bcb77"/></g>
  <g transform="translate(0, 650)">
    <line x1="25" y1="0" x2="495" y2="0" stroke="#30363d" stroke-width="0.5"/>
    <text x="25" y="20" fill="#58a6ff" font-size="13" font-weight="bold" font-family="monospace">Total</text>
    <text x="155" y="20" fill="#c9d1d9" font-size="13" font-weight="bold" font-family="monospace" text-anchor="end">316</text>
    <text x="215" y="20" fill="#3fb950" font-size="13" font-weight="bold" font-family="monospace" text-anchor="end">+133560</text>
    <text x="275" y="20" fill="#f85149" font-size="13" font-weight="bold" font-family="monospace" text-anchor="end">-24270</text>
  </g>
  
  <text x="25" y="705" fill="#58a6ff" font-size="13" font-weight="bold" font-family="monospace">Code Velocity</text>
  <text x="25" y="725" fill="#c9d1d9" font-size="11" font-family="monospace">8307 lines/day avg  |  16.6 commits/day  |  &#9650;</text>
  
  <text x="25" y="755" fill="#58a6ff" font-size="13" font-weight="bold" font-family="monospace">Language Treemap</text>
  <rect x="25" y="762" width="156" height="20" fill="#292929" opacity="0.8" rx="2"/>
  <text x="103" y="776" fill="#fff" font-size="9" font-family="monospace" text-anchor="middle">JSON</text>
  <rect x="181" y="762" width="80" height="20" fill="#3572A5" opacity="0.8" rx="2"/>
  <text x="221" y="776" fill="#fff" font-size="9" font-family="monospace" text-anchor="middle">Python</text>
  <rect x="261" y="762" width="65" height="20" fill="#61dafb" opacity="0.8" rx="2"/>
  <text x="293" y="776" fill="#fff" font-size="9" font-family="monospace" text-anchor="middle">React JS</text>
  <rect x="326" y="762" width="51" height="20" fill="#f1e05a" opacity="0.8" rx="2"/>
  <text x="351" y="776" fill="#fff" font-size="9" font-family="monospace" text-anchor="middle">JavaScri</text>
  <rect x="377" y="762" width="49" height="20" fill="#3178c6" opacity="0.8" rx="2"/>
  <text x="401" y="776" fill="#fff" font-size="9" font-family="monospace" text-anchor="middle">React TS</text>
  <rect x="426" y="762" width="20" height="20" fill="#083fa1" opacity="0.8" rx="2"/>
  <rect x="446" y="762" width="18" height="20" fill="#563d7c" opacity="0.8" rx="2"/>
  <rect x="464" y="762" width="10" height="20" fill="#3178c6" opacity="0.8" rx="2"/>
  <rect x="474" y="762" width="8" height="20" fill="#e34c26" opacity="0.8" rx="2"/>
  <rect x="482" y="762" width="7" height="20" fill="#012456" opacity="0.8" rx="2"/>
  
  <text x="25" y="805" fill="#58a6ff" font-size="13" font-weight="bold" font-family="monospace">Languages</text>
  <circle cx="80" cy="880" r="40" fill="none" stroke="#292929" stroke-width="12" stroke-dasharray="92.7 251.3" stroke-dashoffset="-0.0" transform="rotate(-90 80 880)" style="animation: donut-fill 0.8s ease 0.2s both"/>
  <rect x="140" y="820" width="8" height="8" rx="2" fill="#292929"/><text x="154" y="828" fill="#c9d1d9" font-size="10" font-family="monospace">JSON 37%</text>
  <circle cx="80" cy="880" r="40" fill="none" stroke="#3572A5" stroke-width="12" stroke-dasharray="47.7 251.3" stroke-dashoffset="-92.7" transform="rotate(-90 80 880)" style="animation: donut-fill 0.8s ease 0.35s both"/>
  <rect x="140" y="840" width="8" height="8" rx="2" fill="#3572A5"/><text x="154" y="848" fill="#c9d1d9" font-size="10" font-family="monospace">Python 19%</text>
  <circle cx="80" cy="880" r="40" fill="none" stroke="#61dafb" stroke-width="12" stroke-dasharray="39.0 251.3" stroke-dashoffset="-140.5" transform="rotate(-90 80 880)" style="animation: donut-fill 0.8s ease 0.5s both"/>
  <rect x="140" y="860" width="8" height="8" rx="2" fill="#61dafb"/><text x="154" y="868" fill="#c9d1d9" font-size="10" font-family="monospace">React JSX 16%</text>
  <circle cx="80" cy="880" r="40" fill="none" stroke="#f1e05a" stroke-width="12" stroke-dasharray="30.5 251.3" stroke-dashoffset="-179.4" transform="rotate(-90 80 880)" style="animation: donut-fill 0.8s ease 0.6499999999999999s both"/>
  <rect x="140" y="880" width="8" height="8" rx="2" fill="#f1e05a"/><text x="154" y="888" fill="#c9d1d9" font-size="10" font-family="monospace">JavaScript 12%</text>
  <circle cx="80" cy="880" r="40" fill="none" stroke="#3178c6" stroke-width="12" stroke-dasharray="29.1 251.3" stroke-dashoffset="-209.9" transform="rotate(-90 80 880)" style="animation: donut-fill 0.8s ease 0.8s both"/>
  <rect x="140" y="900" width="8" height="8" rx="2" fill="#3178c6"/><text x="154" y="908" fill="#c9d1d9" font-size="10" font-family="monospace">React TSX 12%</text>
  <circle cx="80" cy="880" r="40" fill="none" stroke="#083fa1" stroke-width="12" stroke-dasharray="12.4 251.3" stroke-dashoffset="-239.0" transform="rotate(-90 80 880)" style="animation: donut-fill 0.8s ease 0.95s both"/>
  <rect x="140" y="920" width="8" height="8" rx="2" fill="#083fa1"/><text x="154" y="928" fill="#c9d1d9" font-size="10" font-family="monospace">Markdown 5%</text>
  
  <text x="25" y="965" fill="#58a6ff" font-size="13" font-weight="bold" font-family="monospace">Net LOC Trend</text>
  <polygon points="25,1015 25.0,1014.8 51.1,984.3 77.2,1012.7 103.3,1014.4 129.4,1007.8 155.6,1008.7 181.7,1013.0 207.8,1006.4 233.9,1010.1 260.0,1012.4 286.1,975.0 312.2,996.5 338.3,1015.0 364.4,1009.5 390.6,1010.2 416.7,1014.8 442.8,997.9 468.9,1012.4 495.0,1009.7 495,1015" fill="#58a6ff" opacity="0.1"/><polyline points="25.0,1014.8 51.1,984.3 77.2,1012.7 103.3,1014.4 129.4,1007.8 155.6,1008.7 181.7,1013.0 207.8,1006.4 233.9,1010.1 260.0,1012.4 286.1,975.0 312.2,996.5 338.3,1015.0 364.4,1009.5 390.6,1010.2 416.7,1014.8 442.8,997.9 468.9,1012.4 495.0,1009.7" fill="none" stroke="#58a6ff" stroke-width="1.5" stroke-linecap="round" style="stroke-dasharray: 542; stroke-dashoffset: 542; animation: sparkline-draw 1.5s ease 0.5s forwards"/>
  
  <text x="25" y="1045" fill="#58a6ff" font-size="13" font-weight="bold" font-family="monospace">Top Repositories</text>
  <text x="25" y="1072" fill="#c9d1d9" font-size="11" font-family="monospace">yoga-centre-applicat</text><text x="250" y="1072" fill="#3fb950" font-size="11" font-family="monospace" text-anchor="end">+53056</text><text x="310" y="1072" fill="#f85149" font-size="11" font-family="monospace" text-anchor="end">-5778</text><text x="370" y="1072" fill="#8b949e" font-size="11" font-family="monospace" text-anchor="end">123 commits</text>
  <text x="25" y="1094" fill="#c9d1d9" font-size="11" font-family="monospace">Chancery-Hotels-Webs</text><text x="250" y="1094" fill="#3fb950" font-size="11" font-family="monospace" text-anchor="end">+27695</text><text x="310" y="1094" fill="#f85149" font-size="11" font-family="monospace" text-anchor="end">-5839</text><text x="370" y="1094" fill="#8b949e" font-size="11" font-family="monospace" text-anchor="end">53 commits</text>
  <text x="25" y="1116" fill="#c9d1d9" font-size="11" font-family="monospace">Chancery-Hotels</text><text x="250" y="1116" fill="#3fb950" font-size="11" font-family="monospace" text-anchor="end">+19575</text><text x="310" y="1116" fill="#f85149" font-size="11" font-family="monospace" text-anchor="end">-847</text><text x="370" y="1116" fill="#8b949e" font-size="11" font-family="monospace" text-anchor="end">62 commits</text>
  <text x="25" y="1138" fill="#c9d1d9" font-size="11" font-family="monospace">Humans-Of-Australia</text><text x="250" y="1138" fill="#3fb950" font-size="11" font-family="monospace" text-anchor="end">+11731</text><text x="310" y="1138" fill="#f85149" font-size="11" font-family="monospace" text-anchor="end">-8238</text><text x="370" y="1138" fill="#8b949e" font-size="11" font-family="monospace" text-anchor="end">1 commits</text>
  <text x="25" y="1160" fill="#c9d1d9" font-size="11" font-family="monospace">STARK-HUD</text><text x="250" y="1160" fill="#3fb950" font-size="11" font-family="monospace" text-anchor="end">+10043</text><text x="310" y="1160" fill="#f85149" font-size="11" font-family="monospace" text-anchor="end">-140</text><text x="370" y="1160" fill="#8b949e" font-size="11" font-family="monospace" text-anchor="end">15 commits</text>
  
  <text x="25" y="1195" fill="#58a6ff" font-size="13" font-weight="bold" font-family="monospace">Code Churn</text>
  <text x="25" y="1220" fill="#c9d1d9" font-size="10" font-family="monospace">README.md</text><text x="490" y="1220" fill="#f85149" font-size="10" font-family="monospace" text-anchor="end">28x changed</text>
  <text x="25" y="1238" fill="#c9d1d9" font-size="10" font-family="monospace">.gitignore</text><text x="490" y="1238" fill="#f85149" font-size="10" font-family="monospace" text-anchor="end">16x changed</text>
  <text x="25" y="1256" fill="#c9d1d9" font-size="10" font-family="monospace">views.py</text><text x="490" y="1256" fill="#f85149" font-size="10" font-family="monospace" text-anchor="end">16x changed</text>
  
  <text x="25" y="1284" fill="#58a6ff" font-size="13" font-weight="bold" font-family="monospace">Coding Hours</text>
  <rect x="25" y="1291" width="66" height="12" rx="3" fill="#238636"/>
  <rect x="91" y="1291" width="354" height="12" rx="3" fill="#58a6ff"/>
  <text x="25" y="1317" fill="#c9d1d9" font-size="10" font-family="monospace">Work 16% | Night 84% | Peak: 0:00</text>
  
  <text x="25" y="1344" fill="#58a6ff" font-size="13" font-weight="bold" font-family="monospace">Code Survival</text>
  <rect x="25" y="1351" width="420" height="10" rx="3" fill="#21262d"/>
  <rect x="25" y="1351" width="343" height="10" rx="3" fill="#238636"/>
  <text x="490" y="1360" fill="#c9d1d9" font-size="10" font-family="monospace" text-anchor="end">82% survives</text>
  
  <text x="25" y="1384" fill="#58a6ff" font-size="13" font-weight="bold" font-family="monospace">Health Score: A+</text>
  <rect x="25" y="1391" width="420" height="10" rx="3" fill="#21262d"/>
  <rect x="25" y="1391" width="420" height="10" rx="3" fill="#3fb950"/>
  <text x="490" y="1400" fill="#c9d1d9" font-size="10" font-family="monospace" text-anchor="end">100/100</text>
  
  <text x="25" y="1424" fill="#58a6ff" font-size="13" font-weight="bold" font-family="monospace">Achievements</text>
  <g style="animation: fade-in 0.4s ease 0.3s both"><rect x="25" y="1437" width="88" height="22" rx="11" fill="#21262d" stroke="#30363d" stroke-width="0.5"/><g transform="translate(31, 1440) scale(0.7)" color="#58a6ff"><path d="M4 2h16v4c0 2-2 4-4 4h-1c0 2-1 3-3 4v2h4v2H8v-2h4v-2c-2-1-3-2-3-4H8C6 10 4 8 4 6V2z" fill="currentColor"/></g><text x="75" y="1452" fill="#c9d1d9" font-size="10" font-family="monospace" text-anchor="middle">Century</text></g>
  <g style="animation: fade-in 0.4s ease 0.4s both"><rect x="121.5" y="1437" width="81" height="22" rx="11" fill="#21262d" stroke="#30363d" stroke-width="0.5"/><g transform="translate(127.5, 1440) scale(0.7)" color="#58a6ff"><path d="M4 2h16v4c0 2-2 4-4 4h-1c0 2-1 3-3 4v2h4v2H8v-2h4v-2c-2-1-3-2-3-4H8C6 10 4 8 4 6V2z" fill="currentColor"/></g><text x="168" y="1452" fill="#c9d1d9" font-size="10" font-family="monospace" text-anchor="middle">Half K</text></g>
  <g style="animation: fade-in 0.4s ease 0.5s both"><rect x="210.5" y="1437" width="88" height="22" rx="11" fill="#21262d" stroke="#30363d" stroke-width="0.5"/><g transform="translate(216.5, 1440) scale(0.7)" color="#58a6ff"><path d="M4 2h16v4c0 2-2 4-4 4h-1c0 2-1 3-3 4v2h4v2H8v-2h4v-2c-2-1-3-2-3-4H8C6 10 4 8 4 6V2z" fill="currentColor"/></g><text x="261" y="1452" fill="#c9d1d9" font-size="10" font-family="monospace" text-anchor="middle">1K Club</text></g>
  <g style="animation: fade-in 0.4s ease 0.6000000000000001s both"><rect x="25" y="1465" width="96" height="22" rx="11" fill="#21262d" stroke="#30363d" stroke-width="0.5"/><g transform="translate(31, 1468) scale(0.7)" color="#58a6ff"><path d="M4 2h16v4c0 2-2 4-4 4h-1c0 2-1 3-3 4v2h4v2H8v-2h4v-2c-2-1-3-2-3-4H8C6 10 4 8 4 6V2z" fill="currentColor"/></g><text x="79" y="1480" fill="#c9d1d9" font-size="10" font-family="monospace" text-anchor="middle">5K Grind</text></g>
  <g style="animation: fade-in 0.4s ease 0.7s both"><rect x="129.0" y="1465" width="118" height="22" rx="11" fill="#21262d" stroke="#30363d" stroke-width="0.5"/><g transform="translate(135.0, 1468) scale(0.7)" color="#58a6ff"><path d="M4 2h16v4c0 2-2 4-4 4h-1c0 2-1 3-3 4v2h4v2H8v-2h4v-2c-2-1-3-2-3-4H8C6 10 4 8 4 6V2z" fill="currentColor"/></g><text x="194" y="1480" fill="#c9d1d9" font-size="10" font-family="monospace" text-anchor="middle">10K Machine</text></g>
  <g style="animation: fade-in 0.4s ease 0.8s both"><rect x="255.5" y="1465" width="148" height="22" rx="11" fill="#21262d" stroke="#30363d" stroke-width="0.5"/><g transform="translate(261.5, 1468) scale(0.7)" color="#58a6ff"><path d="M12 2c1 3-1 5-1 5s2-1 3 1c1 2-1 4-1 4s2-1 2 1c0 3-2 5-5 5s-5-2-5-5c0-2 1-3 2-4 1-1 2-3 1-5 1 2 3 2 4-2z" fill="currentColor"/></g><text x="336" y="1480" fill="#c9d1d9" font-size="10" font-family="monospace" text-anchor="middle">Getting Started</text></g>
  <text x="495" y="1513" fill="#8b949e" font-size="10" font-family="monospace" text-anchor="end">Updated: 2026-04-15 19:28 UTC</text>
</svg>