<svg xmlns="http://www.w3.org/2000/svg" width="520" height="734" viewBox="0 0 520 734">
  <style>
    @keyframes fade-in { from { opacity: 0; transform: translateY(5px); } to { opacity: 1; transform: translateY(0); } }
    @keyframes bar-grow { from { width: 0; } }
    @keyframes donut-fill { from { stroke-dasharray: 0 1000; } }
    .row-anim { animation: fade-in 0.3s ease both; }
    .bar-anim { animation: bar-grow 0.6s ease both; }
  </style>
  <rect width="520" height="734" rx="10" fill="#0d1117" stroke="#30363d" stroke-width="1.5"/>
  <text x="25" y="30" fill="#58a6ff" font-size="16" font-weight="bold" font-family="monospace">Daily Lines of Code</text>
  <text x="25" y="48" fill="#8b949e" font-size="11" font-family="monospace">@Rudra-Tiwari-codes | last 30 days | 10 commits</text>
  <circle cx="260" cy="48" r="4" fill="#ff6b6b"/><text x="268" y="51" fill="#8b949e" font-size="9" font-family="monospace">Beast Mode</text>
  <circle cx="325" cy="48" r="4" fill="#ffd93d"/><text x="333" y="51" fill="#8b949e" font-size="9" font-family="monospace">High</text>
  <circle cx="390" cy="48" r="4" fill="#6bcb77"/><text x="398" y="51" fill="#8b949e" font-size="9" font-family="monospace">Medium</text>
  <circle cx="455" cy="48" r="4" fill="#4d96ff"/><text x="463" y="51" fill="#8b949e" font-size="9" font-family="monospace">Low</text>
  <text x="25" y="68" fill="#c9d1d9" font-size="11" font-family="monospace">Streak: 0d (best: 1d)</text>
  <g transform="translate(0, 80)">
    <text x="25" y="0" fill="#8b949e" font-size="11" font-family="monospace">Date</text>
    <text x="155" y="0" fill="#8b949e" font-size="11" font-family="monospace" text-anchor="end">Commits</text>
    <text x="215" y="0" fill="#8b949e" font-size="11" font-family="monospace" text-anchor="end">Added</text>
    <text x="275" y="0" fill="#8b949e" font-size="11" font-family="monospace" text-anchor="end">Deleted</text>
    <text x="290" y="0" fill="#8b949e" font-size="11" font-family="monospace">Chart</text>
    <line x1="25" y1="8" x2="495" y2="8" stroke="#30363d" stroke-width="0.5"/>
  </g>
      <g transform="translate(0, 108)" class="row-anim" style="animation-delay: 0.0s"><text x="25" y="18" fill="#c9d1d9" font-size="12" font-family="monospace">2026-04-05</text><text x="155" y="18" fill="#8b949e" font-size="12" font-family="monospace" text-anchor="end">5</text><text x="215" y="18" fill="#3fb950" font-size="12" font-family="monospace" text-anchor="end">+354</text><text x="275" y="18" fill="#f85149" font-size="12" font-family="monospace" text-anchor="end">-1</text><rect x="290" y="6" width="100" height="14" rx="3" fill="#21262d"/><rect x="290" y="6" width="100" height="14" rx="3" fill="#238636" class="bar-anim" style="animation-delay: 0.1s"/><circle cx="490" cy="121" r="4" fill="#ff6b6b"/></g>    <g transform="translate(0, 136)" class="row-anim" style="animation-delay: 0.05s"><text x="25" y="18" fill="#c9d1d9" font-size="12" font-family="monospace">2026-04-08</text><text x="155" y="18" fill="#8b949e" font-size="12" font-family="monospace" text-anchor="end">3</text><text x="215" y="18" fill="#3fb950" font-size="12" font-family="monospace" text-anchor="end">+124</text><text x="275" y="18" fill="#f85149" font-size="12" font-family="monospace" text-anchor="end">-8</text><rect x="290" y="6" width="100" height="14" rx="3" fill="#21262d"/><rect x="290" y="6" width="35" height="14" rx="3" fill="#238636" class="bar-anim" style="animation-delay: 0.15000000000000002s"/><circle cx="490" cy="149" r="4" fill="#ff6b6b"/></g>    <g transform="translate(0, 164)" class="row-anim" style="animation-delay: 0.1s"><text x="25" y="18" fill="#c9d1d9" font-size="12" font-family="monospace">2026-04-13</text><text x="155" y="18" fill="#8b949e" font-size="12" font-family="monospace" text-anchor="end">2</text><text x="215" y="18" fill="#3fb950" font-size="12" font-family="monospace" text-anchor="end">+5</text><text x="275" y="18" fill="#f85149" font-size="12" font-family="monospace" text-anchor="end">-5</text><rect x="290" y="6" width="100" height="14" rx="3" fill="#21262d"/><rect x="290" y="6" width="2" height="14" rx="3" fill="#238636" class="bar-anim" style="animation-delay: 0.2s"/><circle cx="490" cy="177" r="4" fill="#6bcb77"/></g>
  <g transform="translate(0, 202)">
    <line x1="25" y1="0" x2="495" y2="0" stroke="#30363d" stroke-width="0.5"/>
    <text x="25" y="20" fill="#58a6ff" font-size="13" font-weight="bold" font-family="monospace">Total</text>
    <text x="155" y="20" fill="#c9d1d9" font-size="13" font-weight="bold" font-family="monospace" text-anchor="end">10</text>
    <text x="215" y="20" fill="#3fb950" font-size="13" font-weight="bold" font-family="monospace" text-anchor="end">+483</text>
    <text x="275" y="20" fill="#f85149" font-size="13" font-weight="bold" font-family="monospace" text-anchor="end">-14</text>
  </g>
  
  <text x="25" y="257" fill="#58a6ff" font-size="13" font-weight="bold" font-family="monospace">Code Velocity</text>
  <text x="25" y="277" fill="#c9d1d9" font-size="11" font-family="monospace">166 lines/day avg  |  3.3 commits/day  |  &#9660;</text>
  
  <text x="25" y="307" fill="#58a6ff" font-size="13" font-weight="bold" font-family="monospace">Languages</text>
  <circle cx="80" cy="367" r="35" fill="none" stroke="#3572A5" stroke-width="12" stroke-dasharray="128.7 219.9" stroke-dashoffset="-0.0" transform="rotate(-90 80 367)" style="animation: donut-fill 0.8s ease 0.2s both"/>
  <rect x="135" y="337" width="8" height="8" rx="2" fill="#3572A5"/><text x="149" y="345" fill="#c9d1d9" font-size="10" font-family="monospace">Python 59%</text>
  <circle cx="80" cy="367" r="35" fill="none" stroke="#083fa1" stroke-width="12" stroke-dasharray="56.4 219.9" stroke-dashoffset="-128.7" transform="rotate(-90 80 367)" style="animation: donut-fill 0.8s ease 0.35s both"/>
  <rect x="135" y="357" width="8" height="8" rx="2" fill="#083fa1"/><text x="149" y="365" fill="#c9d1d9" font-size="10" font-family="monospace">Markdown 26%</text>
  <circle cx="80" cy="367" r="35" fill="none" stroke="#292929" stroke-width="12" stroke-dasharray="34.8 219.9" stroke-dashoffset="-185.1" transform="rotate(-90 80 367)" style="animation: donut-fill 0.8s ease 0.5s both"/>
  <rect x="135" y="377" width="8" height="8" rx="2" fill="#292929"/><text x="149" y="385" fill="#c9d1d9" font-size="10" font-family="monospace">JSON 16%</text>
  
  <text x="25" y="437" fill="#58a6ff" font-size="13" font-weight="bold" font-family="monospace">Top Repositories</text>
  <text x="25" y="464" fill="#c9d1d9" font-size="11" font-family="monospace">Iron_Man_Meme-</text><text x="250" y="464" fill="#3fb950" font-size="11" font-family="monospace" text-anchor="end">+478</text><text x="310" y="464" fill="#f85149" font-size="11" font-family="monospace" text-anchor="end">-9</text><text x="370" y="464" fill="#8b949e" font-size="11" font-family="monospace" text-anchor="end">8 commits</text>
  <text x="25" y="486" fill="#c9d1d9" font-size="11" font-family="monospace">Rudra-Tiwari-codes</text><text x="250" y="486" fill="#3fb950" font-size="11" font-family="monospace" text-anchor="end">+5</text><text x="310" y="486" fill="#f85149" font-size="11" font-family="monospace" text-anchor="end">-5</text><text x="370" y="486" fill="#8b949e" font-size="11" font-family="monospace" text-anchor="end">2 commits</text>
  
  <text x="25" y="521" fill="#58a6ff" font-size="13" font-weight="bold" font-family="monospace">Coding Hours</text>
  <rect x="25" y="528" width="0" height="12" rx="3" fill="#238636"/>
  <rect x="25" y="528" width="420" height="12" rx="3" fill="#58a6ff"/>
  <text x="25" y="554" fill="#c9d1d9" font-size="10" font-family="monospace">Work 0% | Night 100% | Peak: 6:00</text>
  
  <text x="25" y="581" fill="#58a6ff" font-size="13" font-weight="bold" font-family="monospace">Code Survival</text>
  <rect x="25" y="588" width="420" height="10" rx="3" fill="#21262d"/>
  <rect x="25" y="588" width="407" height="10" rx="3" fill="#238636"/>
  <text x="490" y="597" fill="#c9d1d9" font-size="10" font-family="monospace" text-anchor="end">97% survives</text>
  
  <text x="25" y="621" fill="#58a6ff" font-size="13" font-weight="bold" font-family="monospace">Health Score: C</text>
  <rect x="25" y="628" width="420" height="10" rx="3" fill="#21262d"/>
  <rect x="25" y="628" width="284" height="10" rx="3" fill="#58a6ff"/>
  <text x="490" y="637" fill="#c9d1d9" font-size="10" font-family="monospace" text-anchor="end">68/100</text>
  
  <text x="25" y="661" fill="#58a6ff" font-size="13" font-weight="bold" font-family="monospace">Achievements</text>
  <g style="animation: fade-in 0.4s ease 0.3s both"><rect x="25" y="674" width="88" height="22" rx="11" fill="#21262d" stroke="#30363d" stroke-width="0.5"/><g transform="translate(31, 677) scale(0.7)" color="#58a6ff"><path d="M4 2h16v4c0 2-2 4-4 4h-1c0 2-1 3-3 4v2h4v2H8v-2h4v-2c-2-1-3-2-3-4H8C6 10 4 8 4 6V2z" fill="currentColor"/></g><text x="75" y="689" fill="#c9d1d9" font-size="10" font-family="monospace" text-anchor="middle">Century</text></g>
  <g style="animation: fade-in 0.4s ease 0.4s both"><rect x="121.5" y="674" width="148" height="22" rx="11" fill="#21262d" stroke="#30363d" stroke-width="0.5"/><g transform="translate(127.5, 677) scale(0.7)" color="#58a6ff"><path d="M12 2c1 3-1 5-1 5s2-1 3 1c1 2-1 4-1 4s2-1 2 1c0 3-2 5-5 5s-5-2-5-5c0-2 1-3 2-4 1-1 2-3 1-5 1 2 3 2 4-2z" fill="currentColor"/></g><text x="202" y="689" fill="#c9d1d9" font-size="10" font-family="monospace" text-anchor="middle">Getting Started</text></g>
  <g style="animation: fade-in 0.4s ease 0.5s both"><rect x="278.0" y="674" width="96" height="22" rx="11" fill="#21262d" stroke="#30363d" stroke-width="0.5"/><g transform="translate(284.0, 677) scale(0.7)" color="#58a6ff"><circle cx="12" cy="12" r="10" fill="none" stroke="currentColor" stroke-width="2"/><ellipse cx="12" cy="12" rx="4" ry="10" fill="none" stroke="currentColor" stroke-width="1.5"/><line x1="2" y1="12" x2="22" y2="12" stroke="currentColor" stroke-width="1.5"/></g><text x="332" y="689" fill="#c9d1d9" font-size="10" font-family="monospace" text-anchor="middle">Polyglot</text></g>
  <text x="495" y="722" fill="#8b949e" font-size="10" font-family="monospace" text-anchor="end">Updated: 2026-05-03 22:51 UTC</text>
</svg>