<svg xmlns="http://www.w3.org/2000/svg" width="520" height="896" viewBox="0 0 520 896">
  <style>
    @keyframes fade-in { from { opacity: 0; transform: translateY(5px); } to { opacity: 1; transform: translateY(0); } }
    @keyframes bar-grow { from { width: 0; } }
    @keyframes donut-fill { from { stroke-dasharray: 0 1000; } }
    .row-anim { animation: fade-in 0.3s ease both; }
    .bar-anim { animation: bar-grow 0.6s ease both; }
  </style>
  <rect width="520" height="896" rx="10" fill="#0d1117" stroke="#30363d" stroke-width="1.5"/>
  <text x="25" y="30" fill="#58a6ff" font-size="16" font-weight="bold" font-family="monospace">Daily Lines of Code</text>
  <text x="25" y="48" fill="#8b949e" font-size="11" font-family="monospace">@Rudra-Tiwari-codes | last 30 days | 392 commits</text>
  <circle cx="260" cy="48" r="4" fill="#ff6b6b"/><text x="268" y="51" fill="#8b949e" font-size="9" font-family="monospace">Beast Mode</text>
  <circle cx="325" cy="48" r="4" fill="#ffd93d"/><text x="333" y="51" fill="#8b949e" font-size="9" font-family="monospace">High</text>
  <circle cx="390" cy="48" r="4" fill="#6bcb77"/><text x="398" y="51" fill="#8b949e" font-size="9" font-family="monospace">Medium</text>
  <circle cx="455" cy="48" r="4" fill="#4d96ff"/><text x="463" y="51" fill="#8b949e" font-size="9" font-family="monospace">Low</text>
  <text x="25" y="68" fill="#c9d1d9" font-size="11" font-family="monospace">Streak: 1d (best: 7d)</text>
  <g transform="translate(0, 80)">
    <text x="25" y="0" fill="#8b949e" font-size="11" font-family="monospace">Date</text>
    <text x="155" y="0" fill="#8b949e" font-size="11" font-family="monospace" text-anchor="end">Commits</text>
    <text x="215" y="0" fill="#8b949e" font-size="11" font-family="monospace" text-anchor="end">Added</text>
    <text x="275" y="0" fill="#8b949e" font-size="11" font-family="monospace" text-anchor="end">Deleted</text>
    <text x="290" y="0" fill="#8b949e" font-size="11" font-family="monospace">Chart</text>
    <line x1="25" y1="8" x2="495" y2="8" stroke="#30363d" stroke-width="0.5"/>
  </g>
      <g transform="translate(0, 108)" class="row-anim" style="animation-delay: 0.0s"><text x="25" y="18" fill="#c9d1d9" font-size="12" font-family="monospace">2026-04-11</text><text x="155" y="18" fill="#8b949e" font-size="12" font-family="monospace" text-anchor="end">26</text><text x="215" y="18" fill="#3fb950" font-size="12" font-family="monospace" text-anchor="end">+4005</text><text x="275" y="18" fill="#f85149" font-size="12" font-family="monospace" text-anchor="end">-673</text><rect x="290" y="6" width="100" height="14" rx="3" fill="#21262d"/><rect x="290" y="6" width="14" height="14" rx="3" fill="#238636" class="bar-anim" style="animation-delay: 0.1s"/><circle cx="490" cy="121" r="4" fill="#6bcb77"/></g>    <g transform="translate(0, 136)" class="row-anim" style="animation-delay: 0.05s"><text x="25" y="18" fill="#c9d1d9" font-size="12" font-family="monospace">2026-04-12</text><text x="155" y="18" fill="#8b949e" font-size="12" font-family="monospace" text-anchor="end">4</text><text x="215" y="18" fill="#3fb950" font-size="12" font-family="monospace" text-anchor="end">+259</text><text x="275" y="18" fill="#f85149" font-size="12" font-family="monospace" text-anchor="end">-14</text><rect x="290" y="6" width="100" height="14" rx="3" fill="#21262d"/><rect x="290" y="6" width="2" height="14" rx="3" fill="#238636" class="bar-anim" style="animation-delay: 0.15000000000000002s"/><circle cx="490" cy="149" r="4" fill="#4d96ff"/></g>    <g transform="translate(0, 164)" class="row-anim" style="animation-delay: 0.1s"><text x="25" y="18" fill="#c9d1d9" font-size="12" font-family="monospace">2026-04-13</text><text x="155" y="18" fill="#8b949e" font-size="12" font-family="monospace" text-anchor="end">14</text><text x="215" y="18" fill="#3fb950" font-size="12" font-family="monospace" text-anchor="end">+14777</text><text x="275" y="18" fill="#f85149" font-size="12" font-family="monospace" text-anchor="end">-3178</text><rect x="290" y="6" width="100" height="14" rx="3" fill="#21262d"/><rect x="290" y="6" width="53" height="14" rx="3" fill="#238636" class="bar-anim" style="animation-delay: 0.2s"/><circle cx="490" cy="177" r="4" fill="#ff6b6b"/></g>    <g transform="translate(0, 192)" class="row-anim" style="animation-delay: 0.15000000000000002s"><text x="25" y="18" fill="#c9d1d9" font-size="12" font-family="monospace">2026-04-14</text><text x="155" y="18" fill="#8b949e" font-size="12" font-family="monospace" text-anchor="end">19</text><text x="215" y="18" fill="#3fb950" font-size="12" font-family="monospace" text-anchor="end">+4296</text><text x="275" y="18" fill="#f85149" font-size="12" font-family="monospace" text-anchor="end">-2407</text><rect x="290" y="6" width="100" height="14" rx="3" fill="#21262d"/><rect x="290" y="6" width="15" height="14" rx="3" fill="#238636" class="bar-anim" style="animation-delay: 0.25s"/><circle cx="490" cy="205" r="4" fill="#6bcb77"/></g>    <g transform="translate(0, 220)" class="row-anim" style="animation-delay: 0.2s"><text x="25" y="18" fill="#c9d1d9" font-size="12" font-family="monospace">2026-04-15</text><text x="155" y="18" fill="#8b949e" font-size="12" font-family="monospace" text-anchor="end">21</text><text x="215" y="18" fill="#3fb950" font-size="12" font-family="monospace" text-anchor="end">+12991</text><text x="275" y="18" fill="#f85149" font-size="12" font-family="monospace" text-anchor="end">-9337</text><rect x="290" y="6" width="100" height="14" rx="3" fill="#21262d"/><rect x="290" y="6" width="46" height="14" rx="3" fill="#238636" class="bar-anim" style="animation-delay: 0.30000000000000004s"/><circle cx="490" cy="233" r="4" fill="#6bcb77"/></g>    <g transform="translate(0, 248)" class="row-anim" style="animation-delay: 0.25s"><text x="25" y="18" fill="#c9d1d9" font-size="12" font-family="monospace">2026-04-16</text><text x="155" y="18" fill="#8b949e" font-size="12" font-family="monospace" text-anchor="end">58</text><text x="215" y="18" fill="#3fb950" font-size="12" font-family="monospace" text-anchor="end">+8926</text><text x="275" y="18" fill="#f85149" font-size="12" font-family="monospace" text-anchor="end">-272</text><rect x="290" y="6" width="100" height="14" rx="3" fill="#21262d"/><rect x="290" y="6" width="32" height="14" rx="3" fill="#238636" class="bar-anim" style="animation-delay: 0.35s"/><circle cx="490" cy="261" r="4" fill="#ffd93d"/></g>    <g transform="translate(0, 276)" class="row-anim" style="animation-delay: 0.30000000000000004s"><text x="25" y="18" fill="#c9d1d9" font-size="12" font-family="monospace">2026-04-18</text><text x="155" y="18" fill="#8b949e" font-size="12" font-family="monospace" text-anchor="end">18</text><text x="215" y="18" fill="#3fb950" font-size="12" font-family="monospace" text-anchor="end">+3768</text><text x="275" y="18" fill="#f85149" font-size="12" font-family="monospace" text-anchor="end">-658</text><rect x="290" y="6" width="100" height="14" rx="3" fill="#21262d"/><rect x="290" y="6" width="13" height="14" rx="3" fill="#238636" class="bar-anim" style="animation-delay: 0.4s"/><circle cx="490" cy="289" r="4" fill="#6bcb77"/></g>
  <g transform="translate(0, 314)">
    <line x1="25" y1="0" x2="495" y2="0" stroke="#30363d" stroke-width="0.5"/>
    <text x="25" y="20" fill="#58a6ff" font-size="13" font-weight="bold" font-family="monospace">Total</text>
    <text x="155" y="20" fill="#c9d1d9" font-size="13" font-weight="bold" font-family="monospace" text-anchor="end">392</text>
    <text x="215" y="20" fill="#3fb950" font-size="13" font-weight="bold" font-family="monospace" text-anchor="end">+146254</text>
    <text x="275" y="20" fill="#f85149" font-size="13" font-weight="bold" font-family="monospace" text-anchor="end">-25200</text>
  </g>
  
  <text x="25" y="369" fill="#58a6ff" font-size="13" font-weight="bold" font-family="monospace">Code Velocity</text>
  <text x="25" y="389" fill="#c9d1d9" font-size="11" font-family="monospace">8164 lines/day avg  |  18.7 commits/day  |  &#9650;</text>
  
  <text x="25" y="419" fill="#58a6ff" font-size="13" font-weight="bold" font-family="monospace">Languages</text>
  <circle cx="80" cy="479" r="35" fill="none" stroke="#292929" stroke-width="12" stroke-dasharray="79.0 219.9" stroke-dashoffset="-0.0" transform="rotate(-90 80 479)" style="animation: donut-fill 0.8s ease 0.2s both"/>
  <rect x="135" y="419" width="8" height="8" rx="2" fill="#292929"/><text x="149" y="427" fill="#c9d1d9" font-size="10" font-family="monospace">JSON 36%</text>
  <circle cx="80" cy="479" r="35" fill="none" stroke="#3572A5" stroke-width="12" stroke-dasharray="41.6 219.9" stroke-dashoffset="-79.0" transform="rotate(-90 80 479)" style="animation: donut-fill 0.8s ease 0.35s both"/>
  <rect x="135" y="439" width="8" height="8" rx="2" fill="#3572A5"/><text x="149" y="447" fill="#c9d1d9" font-size="10" font-family="monospace">Python 19%</text>
  <circle cx="80" cy="479" r="35" fill="none" stroke="#61dafb" stroke-width="12" stroke-dasharray="33.2 219.9" stroke-dashoffset="-120.6" transform="rotate(-90 80 479)" style="animation: donut-fill 0.8s ease 0.5s both"/>
  <rect x="135" y="459" width="8" height="8" rx="2" fill="#61dafb"/><text x="149" y="467" fill="#c9d1d9" font-size="10" font-family="monospace">React JSX 15%</text>
  <circle cx="80" cy="479" r="35" fill="none" stroke="#f1e05a" stroke-width="12" stroke-dasharray="27.7 219.9" stroke-dashoffset="-153.8" transform="rotate(-90 80 479)" style="animation: donut-fill 0.8s ease 0.6499999999999999s both"/>
  <rect x="135" y="479" width="8" height="8" rx="2" fill="#f1e05a"/><text x="149" y="487" fill="#c9d1d9" font-size="10" font-family="monospace">JavaScript 13%</text>
  <circle cx="80" cy="479" r="35" fill="none" stroke="#3178c6" stroke-width="12" stroke-dasharray="27.3 219.9" stroke-dashoffset="-181.5" transform="rotate(-90 80 479)" style="animation: donut-fill 0.8s ease 0.8s both"/>
  <rect x="135" y="499" width="8" height="8" rx="2" fill="#3178c6"/><text x="149" y="507" fill="#c9d1d9" font-size="10" font-family="monospace">React TSX 12%</text>
  <circle cx="80" cy="479" r="35" fill="none" stroke="#563d7c" stroke-width="12" stroke-dasharray="11.1 219.9" stroke-dashoffset="-208.8" transform="rotate(-90 80 479)" style="animation: donut-fill 0.8s ease 0.95s both"/>
  <rect x="135" y="519" width="8" height="8" rx="2" fill="#563d7c"/><text x="149" y="527" fill="#c9d1d9" font-size="10" font-family="monospace">CSS 5%</text>
  
  <text x="25" y="549" fill="#58a6ff" font-size="13" font-weight="bold" font-family="monospace">Top Repositories</text>
  <text x="25" y="576" fill="#c9d1d9" font-size="11" font-family="monospace">yoga-centre-applicat</text><text x="250" y="576" fill="#3fb950" font-size="11" font-family="monospace" text-anchor="end">+53056</text><text x="310" y="576" fill="#f85149" font-size="11" font-family="monospace" text-anchor="end">-5778</text><text x="370" y="576" fill="#8b949e" font-size="11" font-family="monospace" text-anchor="end">123 commits</text>
  <text x="25" y="598" fill="#c9d1d9" font-size="11" font-family="monospace">Chancery-Hotels-Webs</text><text x="250" y="598" fill="#3fb950" font-size="11" font-family="monospace" text-anchor="end">+30536</text><text x="310" y="598" fill="#f85149" font-size="11" font-family="monospace" text-anchor="end">-6249</text><text x="370" y="598" fill="#8b949e" font-size="11" font-family="monospace" text-anchor="end">74 commits</text>
  <text x="25" y="620" fill="#c9d1d9" font-size="11" font-family="monospace">Chancery-Hotels</text><text x="250" y="620" fill="#3fb950" font-size="11" font-family="monospace" text-anchor="end">+20885</text><text x="310" y="620" fill="#f85149" font-size="11" font-family="monospace" text-anchor="end">-1224</text><text x="370" y="620" fill="#8b949e" font-size="11" font-family="monospace" text-anchor="end">101 commits</text>
  
  <text x="25" y="655" fill="#58a6ff" font-size="13" font-weight="bold" font-family="monospace">Coding Hours</text>
  <rect x="25" y="662" width="53" height="12" rx="3" fill="#238636"/>
  <rect x="78" y="662" width="367" height="12" rx="3" fill="#58a6ff"/>
  <text x="25" y="688" fill="#c9d1d9" font-size="10" font-family="monospace">Work 13% | Night 87% | Peak: 6:00</text>
  
  <text x="25" y="715" fill="#58a6ff" font-size="13" font-weight="bold" font-family="monospace">Code Survival</text>
  <rect x="25" y="722" width="420" height="10" rx="3" fill="#21262d"/>
  <rect x="25" y="722" width="347" height="10" rx="3" fill="#238636"/>
  <text x="490" y="731" fill="#c9d1d9" font-size="10" font-family="monospace" text-anchor="end">83% survives</text>
  
  <text x="25" y="755" fill="#58a6ff" font-size="13" font-weight="bold" font-family="monospace">Health Score: A+</text>
  <rect x="25" y="762" width="420" height="10" rx="3" fill="#21262d"/>
  <rect x="25" y="762" width="420" height="10" rx="3" fill="#3fb950"/>
  <text x="490" y="771" fill="#c9d1d9" font-size="10" font-family="monospace" text-anchor="end">100/100</text>
  
  <text x="25" y="795" fill="#58a6ff" font-size="13" font-weight="bold" font-family="monospace">Achievements</text>
  <g style="animation: fade-in 0.4s ease 0.3s both"><rect x="25" y="808" width="88" height="22" rx="11" fill="#21262d" stroke="#30363d" stroke-width="0.5"/><g transform="translate(31, 811) scale(0.7)" color="#58a6ff"><path d="M4 2h16v4c0 2-2 4-4 4h-1c0 2-1 3-3 4v2h4v2H8v-2h4v-2c-2-1-3-2-3-4H8C6 10 4 8 4 6V2z" fill="currentColor"/></g><text x="75" y="823" fill="#c9d1d9" font-size="10" font-family="monospace" text-anchor="middle">Century</text></g>
  <g style="animation: fade-in 0.4s ease 0.4s both"><rect x="121.5" y="808" width="81" height="22" rx="11" fill="#21262d" stroke="#30363d" stroke-width="0.5"/><g transform="translate(127.5, 811) scale(0.7)" color="#58a6ff"><path d="M4 2h16v4c0 2-2 4-4 4h-1c0 2-1 3-3 4v2h4v2H8v-2h4v-2c-2-1-3-2-3-4H8C6 10 4 8 4 6V2z" fill="currentColor"/></g><text x="168" y="823" fill="#c9d1d9" font-size="10" font-family="monospace" text-anchor="middle">Half K</text></g>
  <g style="animation: fade-in 0.4s ease 0.5s both"><rect x="210.5" y="808" width="88" height="22" rx="11" fill="#21262d" stroke="#30363d" stroke-width="0.5"/><g transform="translate(216.5, 811) scale(0.7)" color="#58a6ff"><path d="M4 2h16v4c0 2-2 4-4 4h-1c0 2-1 3-3 4v2h4v2H8v-2h4v-2c-2-1-3-2-3-4H8C6 10 4 8 4 6V2z" fill="currentColor"/></g><text x="261" y="823" fill="#c9d1d9" font-size="10" font-family="monospace" text-anchor="middle">1K Club</text></g>
  <g style="animation: fade-in 0.4s ease 0.6000000000000001s both"><rect x="25" y="836" width="96" height="22" rx="11" fill="#21262d" stroke="#30363d" stroke-width="0.5"/><g transform="translate(31, 839) scale(0.7)" color="#58a6ff"><path d="M4 2h16v4c0 2-2 4-4 4h-1c0 2-1 3-3 4v2h4v2H8v-2h4v-2c-2-1-3-2-3-4H8C6 10 4 8 4 6V2z" fill="currentColor"/></g><text x="79" y="851" fill="#c9d1d9" font-size="10" font-family="monospace" text-anchor="middle">5K Grind</text></g>
  <g style="animation: fade-in 0.4s ease 0.7s both"><rect x="129.0" y="836" width="118" height="22" rx="11" fill="#21262d" stroke="#30363d" stroke-width="0.5"/><g transform="translate(135.0, 839) scale(0.7)" color="#58a6ff"><path d="M4 2h16v4c0 2-2 4-4 4h-1c0 2-1 3-3 4v2h4v2H8v-2h4v-2c-2-1-3-2-3-4H8C6 10 4 8 4 6V2z" fill="currentColor"/></g><text x="194" y="851" fill="#c9d1d9" font-size="10" font-family="monospace" text-anchor="middle">10K Machine</text></g>
  <g style="animation: fade-in 0.4s ease 0.8s both"><rect x="255.5" y="836" width="148" height="22" rx="11" fill="#21262d" stroke="#30363d" stroke-width="0.5"/><g transform="translate(261.5, 839) scale(0.7)" color="#58a6ff"><path d="M12 2c1 3-1 5-1 5s2-1 3 1c1 2-1 4-1 4s2-1 2 1c0 3-2 5-5 5s-5-2-5-5c0-2 1-3 2-4 1-1 2-3 1-5 1 2 3 2 4-2z" fill="currentColor"/></g><text x="336" y="851" fill="#c9d1d9" font-size="10" font-family="monospace" text-anchor="middle">Getting Started</text></g>
  <text x="495" y="884" fill="#8b949e" font-size="10" font-family="monospace" text-anchor="end">Updated: 2026-04-18 22:42 UTC</text>
</svg>